<svg width="1920" height="1080" viewBox="0 0 1920 1080" fill="none" xmlns="http://www.w3.org/2000/svg">
<g clip-path="url(#clip0_496_39)">
<rect width="1920" height="1080" fill="white"/>
<g filter="url(#filter0_d_496_39)">
<ellipse cx="12.1152" cy="9.02967" rx="12.1152" ry="9.02967" transform="matrix(0.537483 0.843274 -0.84921 0.528055 75.1068 41.6338)" fill="#84CC16"/>
<ellipse cx="12.1152" cy="9.02967" rx="12.1152" ry="9.02967" transform="matrix(0.537483 0.843274 -0.84921 0.528055 92.882 27.2061)" fill="#84CC16"/>
<path d="M95.5871 62.427C104.912 56.568 111 77.9027 112.713 87.6737C114.426 97.4447 102.386 100.688 96.2968 101.679C90.208 102.669 87.0643 96.8796 85.3513 87.1086C83.6382 77.3376 89.4983 63.4175 95.5871 62.427Z" fill="#84CC16"/>
<path d="M90.5995 67.9732C87.6897 57.3219 109.957 58.2041 119.842 59.6256C129.727 61.0471 131.536 70.8565 130.713 76.9285C129.89 83.0004 122.84 87.5287 112.955 86.1071C103.07 84.6856 89.7762 74.0452 90.5995 67.9732Z" fill="#84CC16"/>
<ellipse cx="12.1152" cy="9.02967" rx="12.1152" ry="9.02967" transform="matrix(0.537483 0.843274 -0.84921 0.528055 117.679 32.209)" fill="#84CC16"/>
<ellipse cx="12.1355" cy="9.01428" rx="12.1355" ry="9.01428" transform="matrix(0.672536 0.740065 -0.745678 0.666306 69.5272 67.1299)" fill="#84CC16"/>
<ellipse cx="12.1152" cy="9.02967" rx="12.1152" ry="9.02967" transform="matrix(0.600357 0.799732 -0.806371 0.59141 47.0449 172.445)" fill="#84CC16"/>
<ellipse cx="12.1152" cy="9.02967" rx="12.1152" ry="9.02967" transform="matrix(0.600357 0.799732 -0.806371 0.59141 63.6656 156.702)" fill="#84CC16"/>
<path d="M69.0547 191.613C77.9046 185.059 85.6048 205.866 88.0595 215.477C90.5143 225.089 78.7574 229.243 72.762 230.696C66.7667 232.149 63.1897 226.616 60.735 217.005C58.2802 207.393 63.0593 193.066 69.0547 191.613Z" fill="#84CC16"/>
<path d="M64.5055 197.524C60.7901 187.127 83.0601 186.304 93.0247 186.966C102.989 187.628 105.543 197.271 105.186 203.388C104.829 209.505 98.1458 214.559 88.1812 213.897C78.2165 213.235 64.1486 203.641 64.5055 197.524Z" fill="#84CC16"/>
<ellipse cx="12.1152" cy="9.02967" rx="12.1152" ry="9.02967" transform="matrix(0.600357 0.799732 -0.806371 0.59141 88.7723 159.795)" fill="#84CC16"/>
<ellipse cx="12.1355" cy="9.01428" rx="12.1355" ry="9.01428" transform="matrix(0.727127 0.686503 -0.692577 0.721344 43.4303 198.293)" fill="#84CC16"/>
<ellipse cx="12.1152" cy="9.02967" rx="12.1152" ry="9.02967" transform="matrix(0.595413 0.80342 -0.810003 0.586425 185.515 307.675)" fill="#84CC16"/>
<ellipse cx="12.1152" cy="9.02967" rx="12.1152" ry="9.02967" transform="matrix(0.595413 0.80342 -0.810003 0.586425 202.233 292.035)" fill="#84CC16"/>
<path d="M207.406 326.978C216.296 320.479 223.868 341.333 226.263 350.959C228.659 360.586 216.877 364.667 210.872 366.083C204.868 367.499 201.325 361.945 198.93 352.318C196.535 342.692 201.402 328.394 207.406 326.978Z" fill="#84CC16"/>
<path d="M202.821 332.862C199.169 322.441 221.444 321.757 231.404 322.48C241.365 323.203 243.859 332.861 243.464 338.976C243.07 345.091 236.355 350.103 226.395 349.38C216.434 348.657 202.426 338.977 202.821 332.862Z" fill="#84CC16"/>
<ellipse cx="12.1152" cy="9.02967" rx="12.1152" ry="9.02967" transform="matrix(0.595413 0.80342 -0.810003 0.586425 227.32 295.283)" fill="#84CC16"/>
<ellipse cx="12.1355" cy="9.01428" rx="12.1355" ry="9.01428" transform="matrix(0.722879 0.690975 -0.697013 0.717059 181.741 333.501)" fill="#84CC16"/>
<ellipse cx="12.1152" cy="9.02967" rx="12.1152" ry="9.02967" transform="matrix(0.595413 0.80342 -0.810003 0.586425 319.3 324.484)" fill="#84CC16"/>
<ellipse cx="12.1152" cy="9.02967" rx="12.1152" ry="9.02967" transform="matrix(0.595413 0.80342 -0.810003 0.586425 336.018 308.845)" fill="#84CC16"/>
<path d="M341.191 343.788C350.081 337.288 357.653 358.142 360.049 367.769C362.444 377.395 350.662 381.477 344.658 382.893C338.653 384.309 335.111 378.754 332.715 369.128C330.32 359.501 335.187 345.204 341.191 343.788Z" fill="#84CC16"/>
<path d="M336.606 349.672C332.955 339.251 355.229 338.566 365.19 339.29C375.15 340.013 377.644 349.671 377.249 355.786C376.855 361.901 370.14 366.913 360.18 366.19C350.22 365.466 336.211 355.786 336.606 349.672Z" fill="#84CC16"/>
<ellipse cx="12.1152" cy="9.02967" rx="12.1152" ry="9.02967" transform="matrix(0.595413 0.80342 -0.810003 0.586425 361.105 312.093)" fill="#84CC16"/>
<ellipse cx="12.1355" cy="9.01428" rx="12.1355" ry="9.01428" transform="matrix(0.722879 0.690975 -0.697013 0.717059 315.526 350.311)" fill="#84CC16"/>
<ellipse cx="12.1152" cy="9.02967" rx="12.1152" ry="9.02967" transform="matrix(0.724591 0.689179 -0.697209 0.716868 201.073 168.274)" fill="#84CC16"/>
<ellipse cx="12.1152" cy="9.02967" rx="12.1152" ry="9.02967" transform="matrix(0.724591 0.689179 -0.697209 0.716868 214.855 149.994)" fill="#84CC16"/>
<path d="M225.955 183.53C233.596 175.599 244.638 194.843 248.652 203.915C252.665 212.986 241.759 219.031 236.088 221.458C230.416 223.884 225.972 219.021 221.958 209.949C217.944 200.878 220.283 185.956 225.955 183.53Z" fill="#84CC16"/>
<path d="M222.448 190.113C217.061 180.475 238.887 175.973 248.823 174.975C258.76 173.976 262.876 183.062 263.538 189.154C264.2 195.245 258.446 201.337 248.51 202.336C238.573 203.334 223.11 196.205 222.448 190.113Z" fill="#84CC16"/>
<ellipse cx="12.1152" cy="9.02967" rx="12.1152" ry="9.02967" transform="matrix(0.724591 0.689179 -0.697209 0.716868 240.127 148.884)" fill="#84CC16"/>
<ellipse cx="12.1355" cy="9.01428" rx="12.1355" ry="9.01428" transform="matrix(0.830843 0.556507 -0.563455 0.826147 201.792 194.364)" fill="#84CC16"/>
</g>
<g filter="url(#filter1_d_496_39)">
<ellipse cx="12.1152" cy="9.02967" rx="12.1152" ry="9.02967" transform="matrix(0.537483 0.843274 -0.84921 0.528055 1607.11 716.634)" fill="#84CC16"/>
<ellipse cx="12.1152" cy="9.02967" rx="12.1152" ry="9.02967" transform="matrix(0.537483 0.843274 -0.84921 0.528055 1624.88 702.206)" fill="#84CC16"/>
<path d="M1627.59 737.427C1636.91 731.568 1643 752.903 1644.71 762.674C1646.43 772.445 1634.39 775.688 1628.3 776.679C1622.21 777.669 1619.06 771.88 1617.35 762.109C1615.64 752.338 1621.5 738.418 1627.59 737.427Z" fill="#84CC16"/>
<path d="M1622.6 742.973C1619.69 732.322 1641.96 733.204 1651.84 734.626C1661.73 736.047 1663.54 745.857 1662.71 751.928C1661.89 758 1654.84 762.529 1644.95 761.107C1635.07 759.686 1621.78 749.045 1622.6 742.973Z" fill="#84CC16"/>
<ellipse cx="12.1152" cy="9.02967" rx="12.1152" ry="9.02967" transform="matrix(0.537483 0.843274 -0.84921 0.528055 1649.68 707.209)" fill="#84CC16"/>
<ellipse cx="12.1355" cy="9.01428" rx="12.1355" ry="9.01428" transform="matrix(0.672536 0.740065 -0.745678 0.666306 1601.53 742.13)" fill="#84CC16"/>
<ellipse cx="12.1152" cy="9.02967" rx="12.1152" ry="9.02967" transform="matrix(0.600357 0.799732 -0.806371 0.59141 1579.05 847.445)" fill="#84CC16"/>
<ellipse cx="12.1152" cy="9.02967" rx="12.1152" ry="9.02967" transform="matrix(0.600357 0.799732 -0.806371 0.59141 1595.67 831.702)" fill="#84CC16"/>
<path d="M1601.05 866.613C1609.9 860.059 1617.6 880.866 1620.06 890.477C1622.51 900.089 1610.76 904.243 1604.76 905.696C1598.77 907.149 1595.19 901.616 1592.73 892.005C1590.28 882.393 1595.06 868.066 1601.05 866.613Z" fill="#84CC16"/>
<path d="M1596.51 872.524C1592.79 862.127 1615.06 861.304 1625.02 861.966C1634.99 862.628 1637.54 872.271 1637.19 878.388C1636.83 884.505 1630.15 889.559 1620.18 888.897C1610.22 888.235 1596.15 878.641 1596.51 872.524Z" fill="#84CC16"/>
<ellipse cx="12.1152" cy="9.02967" rx="12.1152" ry="9.02967" transform="matrix(0.600357 0.799732 -0.806371 0.59141 1620.77 834.795)" fill="#84CC16"/>
<ellipse cx="12.1355" cy="9.01428" rx="12.1355" ry="9.01428" transform="matrix(0.727127 0.686503 -0.692577 0.721344 1575.43 873.293)" fill="#84CC16"/>
<ellipse cx="12.1152" cy="9.02967" rx="12.1152" ry="9.02967" transform="matrix(0.595413 0.80342 -0.810003 0.586425 1717.52 982.675)" fill="#84CC16"/>
<ellipse cx="12.1152" cy="9.02967" rx="12.1152" ry="9.02967" transform="matrix(0.595413 0.80342 -0.810003 0.586425 1734.23 967.035)" fill="#84CC16"/>
<path d="M1739.41 1001.98C1748.3 995.479 1755.87 1016.33 1758.26 1025.96C1760.66 1035.59 1748.88 1039.67 1742.87 1041.08C1736.87 1042.5 1733.33 1036.94 1730.93 1027.32C1728.53 1017.69 1733.4 1003.39 1739.41 1001.98Z" fill="#84CC16"/>
<path d="M1734.82 1007.86C1731.17 997.441 1753.44 996.757 1763.4 997.48C1773.36 998.203 1775.86 1007.86 1775.46 1013.98C1775.07 1020.09 1768.36 1025.1 1758.39 1024.38C1748.43 1023.66 1734.43 1013.98 1734.82 1007.86Z" fill="#84CC16"/>
<ellipse cx="12.1152" cy="9.02967" rx="12.1152" ry="9.02967" transform="matrix(0.595413 0.80342 -0.810003 0.586425 1759.32 970.283)" fill="#84CC16"/>
<ellipse cx="12.1355" cy="9.01428" rx="12.1355" ry="9.01428" transform="matrix(0.722879 0.690975 -0.697013 0.717059 1713.74 1008.5)" fill="#84CC16"/>
<ellipse cx="12.1152" cy="9.02967" rx="12.1152" ry="9.02967" transform="matrix(0.595413 0.80342 -0.810003 0.586425 1851.3 999.484)" fill="#84CC16"/>
<ellipse cx="12.1152" cy="9.02967" rx="12.1152" ry="9.02967" transform="matrix(0.595413 0.80342 -0.810003 0.586425 1868.02 983.845)" fill="#84CC16"/>
<path d="M1873.19 1018.79C1882.08 1012.29 1889.65 1033.14 1892.05 1042.77C1894.44 1052.4 1882.66 1056.48 1876.66 1057.89C1870.65 1059.31 1867.11 1053.75 1864.72 1044.13C1862.32 1034.5 1867.19 1020.2 1873.19 1018.79Z" fill="#84CC16"/>
<path d="M1868.61 1024.67C1864.95 1014.25 1887.23 1013.57 1897.19 1014.29C1907.15 1015.01 1909.64 1024.67 1909.25 1030.79C1908.85 1036.9 1902.14 1041.91 1892.18 1041.19C1882.22 1040.47 1868.21 1030.79 1868.61 1024.67Z" fill="#84CC16"/>
<ellipse cx="12.1152" cy="9.02967" rx="12.1152" ry="9.02967" transform="matrix(0.595413 0.80342 -0.810003 0.586425 1893.1 987.093)" fill="#84CC16"/>
<ellipse cx="12.1355" cy="9.01428" rx="12.1355" ry="9.01428" transform="matrix(0.722879 0.690975 -0.697013 0.717059 1847.53 1025.31)" fill="#84CC16"/>
<ellipse cx="12.1152" cy="9.02967" rx="12.1152" ry="9.02967" transform="matrix(0.724591 0.689179 -0.697209 0.716868 1733.07 843.274)" fill="#84CC16"/>
<ellipse cx="12.1152" cy="9.02967" rx="12.1152" ry="9.02967" transform="matrix(0.724591 0.689179 -0.697209 0.716868 1746.85 824.994)" fill="#84CC16"/>
<path d="M1757.95 858.53C1765.6 850.599 1776.64 869.843 1780.65 878.915C1784.67 887.986 1773.76 894.031 1768.09 896.458C1762.42 898.884 1757.97 894.021 1753.96 884.949C1749.94 875.878 1752.28 860.956 1757.95 858.53Z" fill="#84CC16"/>
<path d="M1754.45 865.113C1749.06 855.475 1770.89 850.973 1780.82 849.975C1790.76 848.976 1794.88 858.062 1795.54 864.154C1796.2 870.245 1790.45 876.337 1780.51 877.336C1770.57 878.334 1755.11 871.205 1754.45 865.113Z" fill="#84CC16"/>
<ellipse cx="12.1152" cy="9.02967" rx="12.1152" ry="9.02967" transform="matrix(0.724591 0.689179 -0.697209 0.716868 1772.13 823.884)" fill="#84CC16"/>
<ellipse cx="12.1355" cy="9.01428" rx="12.1355" ry="9.01428" transform="matrix(0.830843 0.556507 -0.563455 0.826147 1733.79 869.364)" fill="#84CC16"/>
</g>
</g>
<defs>
<filter id="filter0_d_496_39" x="31.2012" y="30.9141" width="350.087" height="360.197" filterUnits="userSpaceOnUse" color-interpolation-filters="sRGB">
<feFlood flood-opacity="0" result="BackgroundImageFix"/>
<feColorMatrix in="SourceAlpha" type="matrix" values="0 0 0 0 0 0 0 0 0 0 0 0 0 0 0 0 0 0 127 0" result="hardAlpha"/>
<feOffset dy="4"/>
<feGaussianBlur stdDeviation="2"/>
<feComposite in2="hardAlpha" operator="out"/>
<feColorMatrix type="matrix" values="0 0 0 0 0 0 0 0 0 0 0 0 0 0 0 0 0 0 0.25 0"/>
<feBlend mode="normal" in2="BackgroundImageFix" result="effect1_dropShadow_496_39"/>
<feBlend mode="normal" in="SourceGraphic" in2="effect1_dropShadow_496_39" result="shape"/>
</filter>
<filter id="filter1_d_496_39" x="1563.2" y="705.914" width="350.087" height="360.197" filterUnits="userSpaceOnUse" color-interpolation-filters="sRGB">
<feFlood flood-opacity="0" result="BackgroundImageFix"/>
<feColorMatrix in="SourceAlpha" type="matrix" values="0 0 0 0 0 0 0 0 0 0 0 0 0 0 0 0 0 0 127 0" result="hardAlpha"/>
<feOffset dy="4"/>
<feGaussianBlur stdDeviation="2"/>
<feComposite in2="hardAlpha" operator="out"/>
<feColorMatrix type="matrix" values="0 0 0 0 0 0 0 0 0 0 0 0 0 0 0 0 0 0 0.25 0"/>
<feBlend mode="normal" in2="BackgroundImageFix" result="effect1_dropShadow_496_39"/>
<feBlend mode="normal" in="SourceGraphic" in2="effect1_dropShadow_496_39" result="shape"/>
</filter>
<clipPath id="clip0_496_39">
<rect width="1920" height="1080" fill="white"/>
</clipPath>
</defs>
</svg>
