<svg width="432" height="353" viewBox="0 0 432 353" fill="none" xmlns="http://www.w3.org/2000/svg">
<g filter="url(#filter0_d_456_46)">
<ellipse cx="12.1152" cy="9.02967" rx="12.1152" ry="9.02967" transform="matrix(0.720081 0.69389 -0.70187 0.712305 54.0786 29.3926)" fill="#D9D9D9"/>
<ellipse cx="12.1152" cy="9.02967" rx="12.1152" ry="9.02967" transform="matrix(0.720081 0.69389 -0.70187 0.712305 67.9795 11.2031)" fill="#D9D9D9"/>
<path d="M78.8606 44.8102C86.5534 36.9297 97.4697 56.2446 101.424 65.3424C105.379 74.4401 94.4334 80.414 88.7461 82.8033C83.0587 85.1927 78.6462 80.3008 74.6917 71.203C70.7373 62.1052 73.1732 47.1996 78.8606 44.8102Z" fill="#D9D9D9"/>
<path d="M75.3111 51.3705C69.9869 41.6973 91.8415 37.3382 101.784 36.4044C111.727 35.4706 115.784 44.5832 116.406 50.679C117.028 56.7749 111.235 62.8288 101.292 63.7625C91.3496 64.6963 75.9331 57.4663 75.3111 51.3705Z" fill="#D9D9D9"/>
<ellipse cx="12.1152" cy="9.02967" rx="12.1152" ry="9.02967" transform="matrix(0.720081 0.69389 -0.70187 0.712305 93.2581 10.2578)" fill="#D9D9D9"/>
<ellipse cx="12.1355" cy="9.01428" rx="12.1355" ry="9.01428" transform="matrix(0.827195 0.561914 -0.568831 0.822454 54.6274 55.4873)" fill="#D9D9D9"/>
<ellipse cx="12.1152" cy="9.02967" rx="12.1152" ry="9.02967" transform="matrix(0.771004 0.636831 -0.645381 0.763861 17.4434 195.139)" fill="#D9D9D9"/>
<ellipse cx="12.1152" cy="9.02967" rx="12.1152" ry="9.02967" transform="matrix(0.771004 0.636831 -0.645381 0.763861 29.9133 175.939)" fill="#D9D9D9"/>
<path d="M43.3311 208.617C50.3992 200.172 62.7596 218.596 67.3977 227.365C72.0358 236.134 61.5793 242.927 56.0912 245.744C50.603 248.561 45.8295 244.021 41.1914 235.252C36.5533 226.483 37.8429 211.435 43.3311 208.617Z" fill="#D9D9D9"/>
<path d="M40.2931 215.43C34.2452 206.192 55.7028 200.175 65.5452 198.484C75.3877 196.793 80.1292 205.569 81.2153 211.6C82.3013 217.63 76.9879 224.109 67.1455 225.8C57.3031 227.491 41.3792 221.46 40.2931 215.43Z" fill="#D9D9D9"/>
<ellipse cx="12.1152" cy="9.02967" rx="12.1152" ry="9.02967" transform="matrix(0.771004 0.636831 -0.645381 0.763861 55.0459 173.065)" fill="#D9D9D9"/>
<ellipse cx="12.1355" cy="9.01428" rx="12.1355" ry="9.01428" transform="matrix(0.867719 0.497054 -0.504313 0.863521 19.9846 221.114)" fill="#D9D9D9"/>
<ellipse cx="12.1152" cy="9.02967" rx="12.1152" ry="9.02967" transform="matrix(0.767061 0.641574 -0.65008 0.759866 212.74 291.166)" fill="#D9D9D9"/>
<ellipse cx="12.1152" cy="9.02967" rx="12.1152" ry="9.02967" transform="matrix(0.767061 0.641574 -0.65008 0.759866 225.329 272.044)" fill="#D9D9D9"/>
<path d="M238.545 304.804C245.665 296.402 257.911 314.902 262.495 323.699C267.079 332.497 256.581 339.225 251.075 342.008C245.57 344.791 240.825 340.222 236.241 331.424C231.657 322.627 233.039 307.587 238.545 304.804Z" fill="#D9D9D9"/>
<path d="M235.465 311.597C229.474 302.321 250.968 296.437 260.821 294.807C270.674 293.177 275.361 301.982 276.41 308.019C277.459 314.056 272.105 320.502 262.253 322.132C252.4 323.762 236.514 317.634 235.465 311.597Z" fill="#D9D9D9"/>
<ellipse cx="12.1152" cy="9.02967" rx="12.1152" ry="9.02967" transform="matrix(0.767061 0.641574 -0.65008 0.759866 250.479 269.324)" fill="#D9D9D9"/>
<ellipse cx="12.1355" cy="9.01428" rx="12.1355" ry="9.01428" transform="matrix(0.864637 0.502397 -0.50963 0.860394 215.122 317.156)" fill="#D9D9D9"/>
<ellipse cx="12.1152" cy="9.02967" rx="12.1152" ry="9.02967" transform="matrix(0.767061 0.641574 -0.65008 0.759866 357.74 247.166)" fill="#D9D9D9"/>
<ellipse cx="12.1152" cy="9.02967" rx="12.1152" ry="9.02967" transform="matrix(0.767061 0.641574 -0.65008 0.759866 370.329 228.044)" fill="#D9D9D9"/>
<path d="M383.545 260.804C390.665 252.402 402.911 270.902 407.495 279.699C412.079 288.497 401.581 295.225 396.075 298.008C390.57 300.791 385.825 296.222 381.241 287.424C376.657 278.627 378.039 263.587 383.545 260.804Z" fill="#D9D9D9"/>
<path d="M380.465 267.597C374.474 258.321 395.968 252.437 405.821 250.807C415.674 249.177 420.361 257.982 421.41 264.019C422.459 270.056 417.105 276.502 407.253 278.132C397.4 279.762 381.514 273.634 380.465 267.597Z" fill="#D9D9D9"/>
<ellipse cx="12.1152" cy="9.02967" rx="12.1152" ry="9.02967" transform="matrix(0.767061 0.641574 -0.65008 0.759866 395.479 225.324)" fill="#D9D9D9"/>
<ellipse cx="12.1355" cy="9.01428" rx="12.1355" ry="9.01428" transform="matrix(0.864637 0.502397 -0.50963 0.860394 360.122 273.156)" fill="#D9D9D9"/>
<ellipse cx="12.1152" cy="9.02967" rx="12.1152" ry="9.02967" transform="matrix(0.865881 0.500249 -0.509865 0.860254 206.208 123)" fill="#D9D9D9"/>
<ellipse cx="12.1152" cy="9.02967" rx="12.1152" ry="9.02967" transform="matrix(0.865881 0.500249 -0.509865 0.860254 215.323 102)" fill="#D9D9D9"/>
<path d="M233.971 132.002C239.542 122.502 254.785 138.623 260.812 146.502C266.839 154.381 257.653 162.813 252.708 166.5C247.762 170.188 242.302 166.501 236.275 158.622C230.248 150.743 229.026 135.69 233.971 132.002Z" fill="#D9D9D9"/>
<path d="M232.104 139.223C224.609 131.115 244.773 121.626 254.199 118.327C263.625 115.029 269.755 122.897 271.826 128.664C273.896 134.432 269.73 141.701 260.304 145C250.878 148.299 234.175 144.99 232.104 139.223Z" fill="#D9D9D9"/>
<ellipse cx="12.1152" cy="9.02967" rx="12.1152" ry="9.02967" transform="matrix(0.865881 0.500249 -0.509865 0.860254 239.632 95)" fill="#D9D9D9"/>
<ellipse cx="12.1355" cy="9.01428" rx="12.1355" ry="9.01428" transform="matrix(0.938095 0.346378 -0.354232 0.935157 213.019 148.195)" fill="#D9D9D9"/>
</g>
<defs>
<filter id="filter0_d_456_46" x="5.94556" y="14.5107" width="419.594" height="336.311" filterUnits="userSpaceOnUse" color-interpolation-filters="sRGB">
<feFlood flood-opacity="0" result="BackgroundImageFix"/>
<feColorMatrix in="SourceAlpha" type="matrix" values="0 0 0 0 0 0 0 0 0 0 0 0 0 0 0 0 0 0 127 0" result="hardAlpha"/>
<feOffset dy="4"/>
<feGaussianBlur stdDeviation="2"/>
<feComposite in2="hardAlpha" operator="out"/>
<feColorMatrix type="matrix" values="0 0 0 0 0 0 0 0 0 0 0 0 0 0 0 0 0 0 0.25 0"/>
<feBlend mode="normal" in2="BackgroundImageFix" result="effect1_dropShadow_456_46"/>
<feBlend mode="normal" in="SourceGraphic" in2="effect1_dropShadow_456_46" result="shape"/>
</filter>
</defs>
</svg>
