<svg width="399" height="324" viewBox="0 0 399 324" fill="none" xmlns="http://www.w3.org/2000/svg">
<g filter="url(#filter0_d_456_46)">
<ellipse cx="12.1152" cy="9.02967" rx="12.1152" ry="9.02967" transform="matrix(0.720081 0.69389 -0.70187 0.712305 21.0786 29.3926)" fill="#84CC16"/>
<ellipse cx="12.1152" cy="9.02967" rx="12.1152" ry="9.02967" transform="matrix(0.720081 0.69389 -0.70187 0.712305 34.9794 11.2031)" fill="#84CC16"/>
<path d="M45.8606 44.8102C53.5534 36.9297 64.4697 56.2446 68.4241 65.3424C72.3785 74.4401 61.4334 80.414 55.7461 82.8033C50.0587 85.1927 45.6462 80.3008 41.6917 71.203C37.7373 62.1052 40.1732 47.1996 45.8606 44.8102Z" fill="#84CC16"/>
<path d="M42.3111 51.3705C36.9869 41.6973 58.8415 37.3382 68.7844 36.4044C78.7273 35.4706 82.7843 44.5832 83.4063 50.679C84.0283 56.7749 78.2353 62.8288 68.2924 63.7625C58.3496 64.6963 42.9331 57.4663 42.3111 51.3705Z" fill="#84CC16"/>
<ellipse cx="12.1152" cy="9.02967" rx="12.1152" ry="9.02967" transform="matrix(0.720081 0.69389 -0.70187 0.712305 60.2582 10.2578)" fill="#84CC16"/>
<ellipse cx="12.1355" cy="9.01428" rx="12.1355" ry="9.01428" transform="matrix(0.827195 0.561914 -0.568831 0.822454 21.6276 55.4873)" fill="#84CC16"/>
<ellipse cx="12.1152" cy="9.02967" rx="12.1152" ry="9.02967" transform="matrix(0.771004 0.636831 -0.645381 0.763861 24.4434 163.139)" fill="#84CC16"/>
<ellipse cx="12.1152" cy="9.02967" rx="12.1152" ry="9.02967" transform="matrix(0.771004 0.636831 -0.645381 0.763861 36.9133 143.939)" fill="#84CC16"/>
<path d="M50.3311 176.617C57.3992 168.172 69.7596 186.596 74.3977 195.365C79.0358 204.134 68.5793 210.927 63.0912 213.744C57.603 216.561 52.8295 212.021 48.1914 203.252C43.5533 194.483 44.8429 179.435 50.3311 176.617Z" fill="#84CC16"/>
<path d="M47.2932 183.43C41.2453 174.192 62.7029 168.175 72.5453 166.484C82.3878 164.793 87.1293 173.569 88.2154 179.6C89.3015 185.63 83.988 192.109 74.1456 193.8C64.3032 195.491 48.3793 189.46 47.2932 183.43Z" fill="#84CC16"/>
<ellipse cx="12.1152" cy="9.02967" rx="12.1152" ry="9.02967" transform="matrix(0.771004 0.636831 -0.645381 0.763861 62.0459 141.065)" fill="#84CC16"/>
<ellipse cx="12.1355" cy="9.01428" rx="12.1355" ry="9.01428" transform="matrix(0.867719 0.497054 -0.504313 0.863521 26.9847 189.114)" fill="#84CC16"/>
<ellipse cx="12.1152" cy="9.02967" rx="12.1152" ry="9.02967" transform="matrix(0.767061 0.641574 -0.65008 0.759866 190.74 262.166)" fill="#84CC16"/>
<ellipse cx="12.1152" cy="9.02967" rx="12.1152" ry="9.02967" transform="matrix(0.767061 0.641574 -0.65008 0.759866 203.329 243.044)" fill="#84CC16"/>
<path d="M216.545 275.804C223.665 267.402 235.911 285.902 240.495 294.699C245.079 303.497 234.581 310.225 229.075 313.008C223.57 315.791 218.825 311.222 214.241 302.424C209.657 293.627 211.039 278.587 216.545 275.804Z" fill="#84CC16"/>
<path d="M213.465 282.597C207.474 273.321 228.968 267.437 238.821 265.807C248.674 264.177 253.361 272.982 254.41 279.019C255.459 285.056 250.105 291.502 240.253 293.132C230.4 294.762 214.514 288.634 213.465 282.597Z" fill="#84CC16"/>
<ellipse cx="12.1152" cy="9.02967" rx="12.1152" ry="9.02967" transform="matrix(0.767061 0.641574 -0.65008 0.759866 228.479 240.324)" fill="#84CC16"/>
<ellipse cx="12.1355" cy="9.01428" rx="12.1355" ry="9.01428" transform="matrix(0.864637 0.502397 -0.50963 0.860394 193.122 288.156)" fill="#84CC16"/>
<ellipse cx="12.1152" cy="9.02967" rx="12.1152" ry="9.02967" transform="matrix(0.767061 0.641574 -0.65008 0.759866 324.74 247.166)" fill="#84CC16"/>
<ellipse cx="12.1152" cy="9.02967" rx="12.1152" ry="9.02967" transform="matrix(0.767061 0.641574 -0.65008 0.759866 337.329 228.044)" fill="#84CC16"/>
<path d="M350.545 260.804C357.665 252.402 369.911 270.902 374.495 279.699C379.079 288.497 368.581 295.225 363.075 298.008C357.57 300.791 352.825 296.222 348.241 287.424C343.657 278.627 345.039 263.587 350.545 260.804Z" fill="#84CC16"/>
<path d="M347.465 267.597C341.474 258.321 362.968 252.437 372.821 250.807C382.674 249.177 387.361 257.982 388.41 264.019C389.459 270.056 384.105 276.502 374.253 278.132C364.4 279.762 348.514 273.634 347.465 267.597Z" fill="#84CC16"/>
<ellipse cx="12.1152" cy="9.02967" rx="12.1152" ry="9.02967" transform="matrix(0.767061 0.641574 -0.65008 0.759866 362.479 225.324)" fill="#84CC16"/>
<ellipse cx="12.1355" cy="9.01428" rx="12.1355" ry="9.01428" transform="matrix(0.864637 0.502397 -0.50963 0.860394 327.122 273.156)" fill="#84CC16"/>
<ellipse cx="12.1152" cy="9.02967" rx="12.1152" ry="9.02967" transform="matrix(0.865881 0.500249 -0.509865 0.860254 173.208 123)" fill="#84CC16"/>
<ellipse cx="12.1152" cy="9.02967" rx="12.1152" ry="9.02967" transform="matrix(0.865881 0.500249 -0.509865 0.860254 182.323 102)" fill="#84CC16"/>
<path d="M200.971 132.002C206.542 122.502 221.785 138.623 227.812 146.502C233.839 154.381 224.653 162.813 219.708 166.5C214.762 170.188 209.302 166.501 203.275 158.622C197.248 150.743 196.026 135.69 200.971 132.002Z" fill="#84CC16"/>
<path d="M199.104 139.223C191.609 131.115 211.773 121.626 221.199 118.327C230.625 115.029 236.755 122.897 238.826 128.664C240.896 134.432 236.73 141.701 227.304 145C217.878 148.299 201.175 144.99 199.104 139.223Z" fill="#84CC16"/>
<ellipse cx="12.1152" cy="9.02967" rx="12.1152" ry="9.02967" transform="matrix(0.865881 0.500249 -0.509865 0.860254 206.632 95)" fill="#84CC16"/>
<ellipse cx="12.1355" cy="9.01428" rx="12.1355" ry="9.01428" transform="matrix(0.938095 0.346378 -0.354232 0.935157 180.019 148.195)" fill="#84CC16"/>
</g>
<defs>
<filter id="filter0_d_456_46" x="8.68115" y="14.5107" width="383.859" height="307.311" filterUnits="userSpaceOnUse" color-interpolation-filters="sRGB">
<feFlood flood-opacity="0" result="BackgroundImageFix"/>
<feColorMatrix in="SourceAlpha" type="matrix" values="0 0 0 0 0 0 0 0 0 0 0 0 0 0 0 0 0 0 127 0" result="hardAlpha"/>
<feOffset dy="4"/>
<feGaussianBlur stdDeviation="2"/>
<feComposite in2="hardAlpha" operator="out"/>
<feColorMatrix type="matrix" values="0 0 0 0 0 0 0 0 0 0 0 0 0 0 0 0 0 0 0.25 0"/>
<feBlend mode="normal" in2="BackgroundImageFix" result="effect1_dropShadow_456_46"/>
<feBlend mode="normal" in="SourceGraphic" in2="effect1_dropShadow_456_46" result="shape"/>
</filter>
</defs>
</svg>
