<?xml version="1.0" standalone="no"?>
<svg  xmlns="http://www.w3.org/2000/svg" viewBox="0 0 1440 320">
<path  fill="#84CC16" fill-opacity="1" d="M0,192L30,192C60,192,120,192,180,202.7C240,213,300,235,360,250.7C420,267,480,277,540,250.7C600,224,660,160,720,154.7C780,149,840,203,900,224C960,245,1020,235,1080,229.3C1140,224,1200,224,1260,229.3C1320,235,1380,245,1410,250.7L1440,256L1440,320L1410,320C1380,320,1320,320,1260,320C1200,320,1140,320,1080,320C1020,320,960,320,900,320C840,320,780,320,720,320C660,320,600,320,540,320C480,320,420,320,360,320C300,320,240,320,180,320C120,320,60,320,30,320L0,320Z"></path></svg>