<svg viewBox="0 0 1440 166" fill="none" xmlns="http://www.w3.org/2000/svg">
<path d="M0 37.7189H30C60 37.7189 120 37.7189 180 48.4189C240 58.7189 300 80.7189 360 96.4189C420 112.719 480 122.719 540 96.4189C600 69.7189 660 5.71886 720 0.418857C780 -5.28114 840 48.7189 900 69.7189C960 90.7189 1020 80.7189 1080 75.0189C1140 69.7189 1200 69.7189 1260 75.0189C1320 80.7189 1380 90.7189 1410 96.4189L1440 101.719V165.719H1410C1380 165.719 1320 165.719 1260 165.719C1200 165.719 1140 165.719 1080 165.719C1020 165.719 960 165.719 900 165.719C840 165.719 780 165.719 720 165.719C660 165.719 600 165.719 540 165.719C480 165.719 420 165.719 360 165.719C300 165.719 240 165.719 180 165.719C120 165.719 60 165.719 30 165.719H0V37.7189Z" fill="url(#paint0_linear_495_52)"/>
<defs>
<linearGradient id="paint0_linear_495_52" x1="1.04303e-08" y1="166" x2="1440" y2="166" gradientUnits="userSpaceOnUse">
<stop stop-color="#84CC16"/>
<stop offset="1" stop-color="#BAF264"/>
</linearGradient>
</defs>
</svg>
